<svg xmlns="http://www.w3.org/2000/svg">
    <path id="tune" d="M440-120v-240h80v80h320v80H520v80h-80Zm-320-80v-80h240v80H120Zm160-160v-80H120v-80h160v-80h80v240h-80Zm160-80v-80h400v80H440Zm160-160v-240h80v80h160v80H680v80h-80Zm-480-80v-80h400v80H120Z"/>
    <path id="resume" d="M240-240v-480h80v480h-80Zm160 0 400-240-400-240v480Z"/>
    <path id="reset" d="M480-120q-138 0-240.5-91.5T122-440h82q14 104 92.5 172T480-200q117 0 198.5-81.5T760-480q0-117-81.5-198.5T480-760q-69 0-129 32t-101 88h110v80H120v-240h80v94q51-64 124.5-99T480-840q75 0 140.5 28.5t114 77q48.5 48.5 77 114T840-480q0 75-28.5 140.5t-77 114q-48.5 48.5-114 77T480-120Zm112-192L440-464v-216h80v184l128 128-56 56Z"/>
    <path id="settings" d="m370-80-16-128q-13-5-24.5-12T307-235l-119 50L78-375l103-78q-1-7-1-13.5v-27q0-6.5 1-13.5L78-585l110-190 119 50q11-8 23-15t24-12l16-128h220l16 128q13 5 24.5 12t22.5 15l119-50 110 190-103 78q1 7 1 13.5v27q0 6.5-2 13.5l103 78-110 190-118-50q-11 8-23 15t-24 12L590-80H370Zm70-80h79l14-106q31-8 57.5-23.5T639-327l99 41 39-68-86-65q5-14 7-29.5t2-31.5q0-16-2-31.5t-7-29.5l86-65-39-68-99 42q-22-23-48.5-38.5T533-694l-13-106h-79l-14 106q-31 8-57.5 23.5T321-633l-99-41-39 68 86 64q-5 15-7 30t-2 32q0 16 2 31t7 30l-86 65 39 68 99-42q22 23 48.5 38.5T427-266l13 106Zm42-180q58 0 99-41t41-99q0-58-41-99t-99-41q-59 0-99.5 41T342-480q0 58 40.5 99t99.5 41Zm-2-140Z"/>
    <path id="timer" d="M360-840v-80h240v80H360Zm80 440h80v-240h-80v240Zm40 320q-74 0-139.5-28.5T226-186q-49-49-77.5-114.5T120-440q0-74 28.5-139.5T226-694q49-49 114.5-77.5T480-800q62 0 119 20t107 58l56-56 56 56-56 56q38 50 58 107t20 119q0 74-28.5 139.5T734-186q-49 49-114.5 77.5T480-80Zm0-80q116 0 198-82t82-198q0-116-82-198t-198-82q-116 0-198 82t-82 198q0 116 82 198t198 82Zm0-280Z"/>
    <path id="pause" d="M560-200v-560h160v560H560Zm-320 0v-560h160v560H240Z"/>
    <path id="play_arrow" d="M320-200v-560l440 280-440 280Z"/>
    <path id="leaderboard" d="M160-200h160v-320H160v320Zm240 0h160v-560H400v560Zm240 0h160v-240H640v240ZM80-120v-480h240v-240h320v320h240v400H80Z"/>
    <path id="coffee" d="M440-240q-117 0-198.5-81.5T160-520v-240q0-33 23.5-56.5T240-840h500q58 0 99 41t41 99q0 58-41 99t-99 41h-20v40q0 117-81.5 198.5T440-240ZM240-640h400v-120H240v120Zm480 0h20q25 0 42.5-17.5T800-700q0-25-17.5-42.5T740-760h-20v120ZM160-120v-80h640v80H160Z"/>
    <path id="palette" d="M480-80q-82 0-155-31.5t-127.5-86Q143-252 111.5-325T80-480q0-83 32.5-156t88-127Q256-817 330-848.5T488-880q80 0 151 27.5t124.5 76q53.5 48.5 85 115T880-518q0 115-70 176.5T640-280h-74q-9 0-12.5 5t-3.5 11q0 12 15 34.5t15 51.5q0 50-27.5 74T480-80Zm0-400Zm-220 40q26 0 43-17t17-43q0-26-17-43t-43-17q-26 0-43 17t-17 43q0 26 17 43t43 17Zm120-160q26 0 43-17t17-43q0-26-17-43t-43-17q-26 0-43 17t-17 43q0 26 17 43t43 17Zm200 0q26 0 43-17t17-43q0-26-17-43t-43-17q-26 0-43 17t-17 43q0 26 17 43t43 17Zm120 160q26 0 43-17t17-43q0-26-17-43t-43-17q-26 0-43 17t-17 43q0 26 17 43t43 17ZM480-160q9 0 14.5-5t5.5-13q0-14-15-33t-15-57q0-42 29-67t71-25h70q66 0 113-38.5T800-518q0-121-92.5-201.5T488-800q-136 0-232 93t-96 227q0 133 93.5 226.5T480-160Z"/>
    <path id="notifications" d="M160-200v-80h80v-280q0-83 50-147.5T420-792v-28q0-25 17.5-42.5T480-880q25 0 42.5 17.5T540-820v28q80 20 130 84.5T720-560v280h80v80H160Zm320-300Zm0 420q-33 0-56.5-23.5T400-160h160q0 33-23.5 56.5T480-80ZM320-280h320v-280q0-66-47-113t-113-47q-66 0-113 47t-47 113v280Z"/>
    <path id="music_note" d="M400-120q-66 0-113-47t-47-113q0-66 47-113t113-47q23 0 42.5 5.5T480-418v-422h240v160H560v400q0 66-47 113t-113 47Z"/>
    <path id="schedule" d="m612-292 56-56-148-148v-184h-80v216l172 172ZM480-80q-83 0-156-31.5T197-197q-54-54-85.5-127T80-480q0-83 31.5-156T197-763q54-54 127-85.5T480-880q83 0 156 31.5T763-763q54 54 85.5 127T880-480q0 83-31.5 156T763-197q-54 54-127 85.5T480-80Zm0-400Zm0 320q133 0 226.5-93.5T800-480q0-133-93.5-226.5T480-800q-133 0-226.5 93.5T160-480q0 133 93.5 226.5T480-160Z"/>
    <path id="arrow_down" d="M480-344 240-584l56-56 184 184 184-184 56 56-240 240Z"/>
</svg>
